<svg width="20" height="22" viewBox="0 0 20 22" fill="none" xmlns="http://www.w3.org/2000/svg">
<path d="M7.75 2H10.8789C11.2766 2.00006 11.658 2.15804 11.9392 2.43922L18.5608 9.06078C18.842 9.34202 18.9999 9.72341 19 10.1211V19.25C19 19.8467 18.7629 20.419 18.341 20.841C17.919 21.2629 17.3467 21.5 16.75 21.5H7C6.40326 21.5 5.83097 21.2629 5.40901 20.841C4.98705 20.419 4.75 19.8467 4.75 19.25V13.25" stroke="#9C9C9C" stroke-linecap="round" stroke-linejoin="round"/>
<path d="M11.5 2.375V8C11.5 8.39782 11.658 8.77936 11.9393 9.06066C12.2206 9.34196 12.6022 9.5 13 9.5H18.625" stroke="#9C9C9C" stroke-linecap="round" stroke-linejoin="round"/>
<path d="M5.5 2.75V9.875C5.50195 10.0233 5.47419 10.1704 5.41834 10.3078C5.3625 10.4452 5.27971 10.57 5.17485 10.6748C5.06999 10.7797 4.94519 10.8625 4.80782 10.9183C4.67045 10.9742 4.52328 11.002 4.375 11C3.8125 11 3.25 10.5734 3.25 9.875V3.125C3.25 1.69109 4.02672 0.5 5.5 0.5C6.97328 0.5 7.75 1.6625 7.75 3.09594V9.59984C7.75 11.6155 6.44594 13.25 4.375 13.25C2.30406 13.25 1 11.6159 1 9.59984V5.75" stroke="#9C9C9C" stroke-miterlimit="10" stroke-linecap="round"/>
</svg>
