<svg width="158" height="41" viewBox="0 0 158 41" fill="none" xmlns="http://www.w3.org/2000/svg">
<g filter="url(#filter0_dd)">
<rect x="4" width="150" height="33" rx="5" fill="#295091"/>
<path d="M40.98 23C40.86 23 40.758 22.964 40.674 22.892C40.602 22.808 40.566 22.706 40.566 22.586V10.832C40.566 10.7 40.602 10.598 40.674 10.526C40.758 10.442 40.86 10.4 40.98 10.4H49.854C49.986 10.4 50.088 10.442 50.16 10.526C50.244 10.598 50.286 10.7 50.286 10.832V22.586C50.286 22.706 50.244 22.808 50.16 22.892C50.076 22.964 49.974 23 49.854 23H48.936C48.816 23 48.714 22.964 48.63 22.892C48.558 22.808 48.522 22.706 48.522 22.586V12.02H42.33V22.586C42.33 22.706 42.288 22.808 42.204 22.892C42.12 22.964 42.018 23 41.898 23H40.98ZM57.0156 23.18C55.6956 23.18 54.6696 22.808 53.9376 22.064C53.2176 21.32 52.8336 20.33 52.7856 19.094L52.7676 18.32L52.7856 17.546C52.8336 16.322 53.2236 15.338 53.9556 14.594C54.6876 13.838 55.7076 13.46 57.0156 13.46C58.3236 13.46 59.3436 13.838 60.0756 14.594C60.8076 15.338 61.1976 16.322 61.2456 17.546C61.2576 17.678 61.2636 17.936 61.2636 18.32C61.2636 18.704 61.2576 18.962 61.2456 19.094C61.1976 20.33 60.8076 21.32 60.0756 22.064C59.3556 22.808 58.3356 23.18 57.0156 23.18ZM57.0156 21.794C57.7716 21.794 58.3656 21.554 58.7976 21.074C59.2416 20.594 59.4816 19.904 59.5176 19.004C59.5296 18.884 59.5356 18.656 59.5356 18.32C59.5356 17.984 59.5296 17.756 59.5176 17.636C59.4816 16.736 59.2416 16.046 58.7976 15.566C58.3656 15.086 57.7716 14.846 57.0156 14.846C56.2596 14.846 55.6596 15.086 55.2156 15.566C54.7716 16.046 54.5376 16.736 54.5136 17.636L54.4956 18.32L54.5136 19.004C54.5376 19.904 54.7716 20.594 55.2156 21.074C55.6596 21.554 56.2596 21.794 57.0156 21.794ZM62.9775 24.98C62.8575 24.98 62.7555 24.938 62.6715 24.854C62.5995 24.782 62.5635 24.686 62.5635 24.566V21.974C62.5635 21.854 62.5995 21.758 62.6715 21.686C62.7555 21.602 62.8575 21.56 62.9775 21.56H63.0675C63.5715 21.548 63.9495 21.128 64.2015 20.3C64.4655 19.472 64.5975 18.158 64.5975 16.358V14.054C64.5975 13.934 64.6335 13.838 64.7055 13.766C64.7895 13.682 64.8915 13.64 65.0115 13.64H70.7535C70.8735 13.64 70.9695 13.682 71.0415 13.766C71.1255 13.838 71.1675 13.934 71.1675 14.054V21.524H72.0135C72.1335 21.524 72.2295 21.566 72.3015 21.65C72.3855 21.722 72.4275 21.818 72.4275 21.938V24.566C72.4275 24.686 72.3855 24.782 72.3015 24.854C72.2295 24.938 72.1335 24.98 72.0135 24.98H71.1675C71.0475 24.98 70.9455 24.938 70.8615 24.854C70.7895 24.782 70.7535 24.686 70.7535 24.566V23H64.2375V24.566C64.2375 24.686 64.1955 24.782 64.1115 24.854C64.0395 24.938 63.9435 24.98 63.8235 24.98H62.9775ZM69.4935 21.524V15.08H66.2355V16.556C66.2355 18.956 65.8935 20.624 65.2095 21.56L69.4935 21.524ZM74.7245 23C74.6045 23 74.5025 22.964 74.4185 22.892C74.3465 22.808 74.3105 22.706 74.3105 22.586V14.054C74.3105 13.934 74.3465 13.838 74.4185 13.766C74.5025 13.682 74.6045 13.64 74.7245 13.64H81.8705C81.9905 13.64 82.0865 13.682 82.1585 13.766C82.2425 13.838 82.2845 13.934 82.2845 14.054V22.586C82.2845 22.706 82.2425 22.808 82.1585 22.892C82.0865 22.964 81.9905 23 81.8705 23H81.0065C80.8865 23 80.7905 22.964 80.7185 22.892C80.6465 22.808 80.6105 22.706 80.6105 22.586V15.08H76.0025V22.586C76.0025 22.706 75.9605 22.808 75.8765 22.892C75.8045 22.964 75.7085 23 75.5885 23H74.7245ZM92.9189 13.64C93.0149 13.64 93.0989 13.676 93.1709 13.748C93.2549 13.82 93.2969 13.904 93.2969 14V22.586C93.2969 22.706 93.2549 22.808 93.1709 22.892C93.0989 22.964 93.0029 23 92.8829 23H92.0369C91.9169 23 91.8149 22.964 91.7309 22.892C91.6589 22.808 91.6229 22.706 91.6229 22.586V16.052L86.6369 22.73C86.5049 22.91 86.3489 23 86.1689 23H85.3589C85.2509 23 85.1549 22.964 85.0709 22.892C84.9989 22.808 84.9629 22.718 84.9629 22.622V14.054C84.9629 13.934 84.9989 13.838 85.0709 13.766C85.1549 13.682 85.2569 13.64 85.3769 13.64H86.2409C86.3609 13.64 86.4569 13.682 86.5289 13.766C86.6129 13.838 86.6549 13.934 86.6549 14.054V20.552L91.6229 13.91C91.7549 13.73 91.9109 13.64 92.0909 13.64H92.9189ZM99.7116 23.18C98.4276 23.18 97.4196 22.82 96.6876 22.1C95.9676 21.368 95.5836 20.348 95.5356 19.04L95.5176 18.32L95.5356 17.6C95.5836 16.292 95.9676 15.278 96.6876 14.558C97.4196 13.826 98.4276 13.46 99.7116 13.46C100.576 13.46 101.308 13.616 101.908 13.928C102.508 14.24 102.952 14.624 103.24 15.08C103.54 15.536 103.702 15.992 103.726 16.448C103.738 16.568 103.702 16.664 103.618 16.736C103.534 16.808 103.432 16.844 103.312 16.844H102.448C102.328 16.844 102.238 16.82 102.178 16.772C102.118 16.724 102.058 16.628 101.998 16.484C101.794 15.908 101.506 15.5 101.134 15.26C100.762 15.008 100.294 14.882 99.7296 14.882C98.9856 14.882 98.3916 15.116 97.9476 15.584C97.5156 16.04 97.2816 16.742 97.2456 17.69L97.2276 18.338L97.2456 18.95C97.2816 19.91 97.5156 20.618 97.9476 21.074C98.3796 21.53 98.9736 21.758 99.7296 21.758C100.294 21.758 100.762 21.638 101.134 21.398C101.506 21.146 101.794 20.732 101.998 20.156C102.058 20.012 102.118 19.916 102.178 19.868C102.238 19.808 102.328 19.778 102.448 19.778H103.312C103.432 19.778 103.534 19.82 103.618 19.904C103.702 19.976 103.738 20.072 103.726 20.192C103.702 20.636 103.54 21.092 103.24 21.56C102.952 22.016 102.508 22.4 101.908 22.712C101.32 23.024 100.588 23.18 99.7116 23.18ZM108.473 23.18C107.885 23.18 107.339 23.06 106.835 22.82C106.331 22.58 105.929 22.256 105.629 21.848C105.341 21.428 105.197 20.966 105.197 20.462C105.197 19.67 105.521 19.022 106.169 18.518C106.829 18.002 107.717 17.666 108.833 17.51L111.515 17.132V16.61C111.515 15.386 110.813 14.774 109.409 14.774C108.881 14.774 108.449 14.888 108.113 15.116C107.777 15.332 107.525 15.59 107.357 15.89C107.321 15.998 107.273 16.076 107.213 16.124C107.165 16.172 107.093 16.196 106.997 16.196H106.223C106.115 16.196 106.019 16.16 105.935 16.088C105.863 16.004 105.827 15.908 105.827 15.8C105.839 15.512 105.971 15.188 106.223 14.828C106.487 14.456 106.889 14.138 107.429 13.874C107.969 13.598 108.635 13.46 109.427 13.46C110.771 13.46 111.737 13.778 112.325 14.414C112.913 15.038 113.207 15.818 113.207 16.754V22.586C113.207 22.706 113.165 22.808 113.081 22.892C113.009 22.964 112.913 23 112.793 23H111.965C111.845 23 111.743 22.964 111.659 22.892C111.587 22.808 111.551 22.706 111.551 22.586V21.812C111.287 22.196 110.903 22.52 110.399 22.784C109.895 23.048 109.253 23.18 108.473 23.18ZM108.851 21.83C109.631 21.83 110.267 21.578 110.759 21.074C111.263 20.558 111.515 19.82 111.515 18.86V18.356L109.427 18.662C108.575 18.782 107.933 18.986 107.501 19.274C107.069 19.55 106.853 19.904 106.853 20.336C106.853 20.816 107.051 21.188 107.447 21.452C107.843 21.704 108.311 21.83 108.851 21.83ZM118.657 23C118.537 23 118.435 22.964 118.351 22.892C118.279 22.808 118.243 22.706 118.243 22.586V15.08H115.111C114.991 15.08 114.889 15.044 114.805 14.972C114.733 14.888 114.697 14.786 114.697 14.666V14.054C114.697 13.934 114.733 13.838 114.805 13.766C114.889 13.682 114.991 13.64 115.111 13.64H123.031C123.151 13.64 123.247 13.682 123.319 13.766C123.403 13.838 123.445 13.934 123.445 14.054V14.666C123.445 14.786 123.403 14.888 123.319 14.972C123.247 15.044 123.151 15.08 123.031 15.08H119.899V22.586C119.899 22.706 119.863 22.808 119.791 22.892C119.719 22.964 119.623 23 119.503 23H118.657ZM128.786 23.18C127.502 23.18 126.494 22.82 125.762 22.1C125.042 21.368 124.658 20.348 124.61 19.04L124.592 18.32L124.61 17.6C124.658 16.292 125.042 15.278 125.762 14.558C126.494 13.826 127.502 13.46 128.786 13.46C129.65 13.46 130.382 13.616 130.982 13.928C131.582 14.24 132.026 14.624 132.314 15.08C132.614 15.536 132.776 15.992 132.8 16.448C132.812 16.568 132.776 16.664 132.692 16.736C132.608 16.808 132.506 16.844 132.386 16.844H131.522C131.402 16.844 131.312 16.82 131.252 16.772C131.192 16.724 131.132 16.628 131.072 16.484C130.868 15.908 130.58 15.5 130.208 15.26C129.836 15.008 129.368 14.882 128.804 14.882C128.06 14.882 127.466 15.116 127.022 15.584C126.59 16.04 126.356 16.742 126.32 17.69L126.302 18.338L126.32 18.95C126.356 19.91 126.59 20.618 127.022 21.074C127.454 21.53 128.048 21.758 128.804 21.758C129.368 21.758 129.836 21.638 130.208 21.398C130.58 21.146 130.868 20.732 131.072 20.156C131.132 20.012 131.192 19.916 131.252 19.868C131.312 19.808 131.402 19.778 131.522 19.778H132.386C132.506 19.778 132.608 19.82 132.692 19.904C132.776 19.976 132.812 20.072 132.8 20.192C132.776 20.636 132.614 21.092 132.314 21.56C132.026 22.016 131.582 22.4 130.982 22.712C130.394 23.024 129.662 23.18 128.786 23.18ZM141.633 13.64C141.753 13.64 141.849 13.682 141.921 13.766C142.005 13.838 142.047 13.934 142.047 14.054V22.586C142.047 22.706 142.005 22.808 141.921 22.892C141.849 22.964 141.753 23 141.633 23H140.769C140.649 23 140.547 22.964 140.463 22.892C140.391 22.808 140.355 22.706 140.355 22.586V19.652H138.429L136.395 22.73C136.347 22.802 136.281 22.868 136.197 22.928C136.113 22.976 136.023 23 135.927 23H135.063C134.955 23 134.865 22.964 134.793 22.892C134.721 22.82 134.685 22.736 134.685 22.64C134.685 22.52 134.727 22.412 134.811 22.316L136.827 19.346C136.203 19.13 135.735 18.788 135.423 18.32C135.111 17.84 134.955 17.264 134.955 16.592C134.955 15.584 135.249 14.84 135.837 14.36C136.437 13.88 137.337 13.64 138.537 13.64H141.633ZM140.373 14.99H138.483C137.799 14.99 137.301 15.11 136.989 15.35C136.677 15.59 136.521 16.004 136.521 16.592C136.521 17.108 136.671 17.522 136.971 17.834C137.283 18.146 137.739 18.302 138.339 18.302H140.373V14.99Z" fill="white"/>
<path d="M23 7.3125C17.6481 7.3125 13.3125 11.6487 13.3125 17C13.3125 22.3512 17.6487 26.6875 23 26.6875C28.3519 26.6875 32.6875 22.3512 32.6875 17C32.6875 11.6487 28.3512 7.3125 23 7.3125ZM27.7581 13.9494L26.1681 21.4419C26.0506 21.9731 25.7344 22.1019 25.2931 21.8519L22.8713 20.0669L21.7031 21.1919C21.5744 21.3206 21.465 21.43 21.215 21.43L21.3869 18.965L25.875 14.91C26.0706 14.7381 25.8319 14.6406 25.5737 14.8125L20.0269 18.3044L17.6363 17.5581C17.1169 17.3944 17.105 17.0387 17.7456 16.7887L27.0856 13.1869C27.5194 13.0306 27.8981 13.2925 27.7575 13.9488L27.7581 13.9494Z" fill="white"/>
</g>
<defs>
<filter id="filter0_dd" x="0" y="0" width="158" height="41" filterUnits="userSpaceOnUse" color-interpolation-filters="sRGB">
<feFlood flood-opacity="0" result="BackgroundImageFix"/>
<feColorMatrix in="SourceAlpha" type="matrix" values="0 0 0 0 0 0 0 0 0 0 0 0 0 0 0 0 0 0 127 0"/>
<feOffset dy="4"/>
<feGaussianBlur stdDeviation="2"/>
<feColorMatrix type="matrix" values="0 0 0 0 0 0 0 0 0 0 0 0 0 0 0 0 0 0 0.25 0"/>
<feBlend mode="normal" in2="BackgroundImageFix" result="effect1_dropShadow"/>
<feColorMatrix in="SourceAlpha" type="matrix" values="0 0 0 0 0 0 0 0 0 0 0 0 0 0 0 0 0 0 127 0"/>
<feOffset dy="4"/>
<feGaussianBlur stdDeviation="2"/>
<feColorMatrix type="matrix" values="0 0 0 0 0 0 0 0 0 0 0 0 0 0 0 0 0 0 0.25 0"/>
<feBlend mode="normal" in2="effect1_dropShadow" result="effect2_dropShadow"/>
<feBlend mode="normal" in="SourceGraphic" in2="effect2_dropShadow" result="shape"/>
</filter>
</defs>
</svg>
